<svg version="1.2" xmlns="http://www.w3.org/2000/svg" viewBox="0 0 250 250" width="250" height="250">
	<style>
		.s0 { fill: none;stroke: #000000;stroke-miterlimit:100;stroke-width: 6 } 
	</style>
	<path id="TACAN" class="s0" d="m159.8 45.26l-15.91 9.24h-37.99c-27.82-15.97-31.11-17.51-31.9-16.58-0.54 0.64-13.46 22.74-28.71 49.11-15.25 26.37-27.53 48.09-27.29 48.26 0.24 0.18 10.58 6.14 22.97 13.27 13.33 7.66 23.52 14.1 24.97 15.78l2.44 2.84-0.02 47.27h113.96l-0.02-44.62c5.68-9.39 6.47-9.95 28.29-22.59 12.4-7.18 22.46-13.38 22.38-13.78-0.09-0.41-12.71-22.5-28.05-49.1-15.34-26.61-28.19-48.37-28.56-48.36-0.36 0.01-7.82 4.17-16.56 9.26z"/>
</svg>